<?xml version="1.0" standalone="no"?><!DOCTYPE svg PUBLIC "-//W3C//DTD SVG 1.1//EN" "http://www.w3.org/Graphics/SVG/1.1/DTD/svg11.dtd"><svg t="1687243642724" class="icon" viewBox="0 0 1024 1024" version="1.1" xmlns="http://www.w3.org/2000/svg" p-id="23839" xmlns:xlink="http://www.w3.org/1999/xlink" width="32" height="32"><path d="M512.7 871C394.4 871 283 834.2 199 767.3c-41.3-32.8-73.8-71.2-96.5-114-23.8-44.7-35.9-92.2-35.9-141.3s12.1-96.6 35.8-141.3c22.8-42.8 55.2-81.1 96.5-114 84-66.8 195.4-103.6 313.8-103.6s229.7 36.8 313.8 103.6c41.3 32.8 73.8 71.2 96.5 114 23.8 44.7 35.8 92.3 35.8 141.3s-12.1 96.6-35.8 141.3c-22.8 42.8-55.2 81.1-96.5 114C742.5 834.2 631 871 512.7 871z m0-677.9c-223.9 0-406.1 143.1-406.1 318.9s182.2 319 406.1 319c223.9 0 406.1-143.1 406.1-318.9s-182.1-319-406.1-319z" fill="#d81e06" p-id="23840"></path></svg>