<?xml version="1.0" standalone="no"?><!DOCTYPE svg PUBLIC "-//W3C//DTD SVG 1.1//EN" "http://www.w3.org/Graphics/SVG/1.1/DTD/svg11.dtd"><svg t="1687243684309" class="icon" viewBox="0 0 1024 1024" version="1.1" xmlns="http://www.w3.org/2000/svg" p-id="26018" xmlns:xlink="http://www.w3.org/1999/xlink" width="32" height="32"><path d="M949.5 806.1L558 160.1c-10.2-16.8-28.4-27-48-27s-37.8 10.3-48 27l-391.5 646c-10.5 17.3-10.8 39-0.9 56.6 9.9 17.7 28.6 28.6 48.9 28.6h783c20.2 0 38.9-10.9 48.9-28.6 9.9-17.6 9.6-39.2-0.9-56.6z m-831 29.1l391.5-646 391.5 646h-783z" fill="#d81e06" p-id="26019"></path><path d="M510 615.1c15.5 0 28.1-12.6 28.1-28v-95c0-15.5-12.5-28-28.1-28-15.5 0-28 12.6-28 28v95c0 15.4 12.5 28 28 28zM509.5 718.3c19.3 0 34.9-15.6 34.9-34.9 0-19.3-15.6-34.9-34.9-34.9-19.3 0-34.9 15.6-34.9 34.9-0.1 19.3 15.6 34.9 34.9 34.9z" fill="#d81e06" p-id="26020"></path><path d="M765.2 761.6H306.3c-10.3 0-18.7 8.4-18.7 18.7 0 10.3 8.4 18.7 18.7 18.7h492c6.8 0 13-3.6 16.3-9.5 3.3-5.9 3.2-13.1-0.3-18.9l-169-278.9c-5.3-8.8-16.8-11.7-25.7-6.3-8.9 5.3-11.7 16.8-6.3 25.7l151.9 250.5zM494 294.8L205.7 770.6c-5.4 8.8-2.5 20.3 6.3 25.7 3 1.8 6.4 2.7 9.7 2.7 6.3 0 12.5-3.2 16-9L510 340.6l60.3 99.6c5.4 8.8 16.9 11.7 25.7 6.3 8.9-5.4 11.7-16.9 6.3-25.7l-76.3-126c-3.4-5.6-9.5-9-16-9s-12.6 3.4-16 9z" fill="#d81e06" p-id="26021"></path></svg>