<?xml version="1.0" standalone="no"?><!DOCTYPE svg PUBLIC "-//W3C//DTD SVG 1.1//EN" "http://www.w3.org/Graphics/SVG/1.1/DTD/svg11.dtd"><svg t="1681914186258" class="icon" viewBox="0 0 1024 1024" version="1.1" xmlns="http://www.w3.org/2000/svg" p-id="13202" xmlns:xlink="http://www.w3.org/1999/xlink" width="30" height="30"><path d="M513 912.5L97 384.1l199.5-261h433l197.5 261z" fill="#FFFFFF" p-id="13203"></path><path d="M513 920.6L90.7 384.1l203.4-266H732l1.5 2 199.8 264.1L513 920.6zM103.3 384.1L513 904.4 920.7 384 727 128.1H299l-195.7 256z" fill="" p-id="13204"></path><path d="M513 912.5L297 384.1l99.5-261h233l97.5 261z" fill="#FFFFFF" p-id="13205"></path><path d="M513 925.8L291.6 384.2 393 118.1h240l99.4 266.1L513 925.8zM302.4 384L513 899.2 721.6 384 626 128.1H400L302.4 384z" fill="" p-id="13206"></path><path d="M97 379.1h830v10H97z" fill="" p-id="13207"></path></svg>