<?xml version="1.0" standalone="no"?><!DOCTYPE svg PUBLIC "-//W3C//DTD SVG 1.1//EN" "http://www.w3.org/Graphics/SVG/1.1/DTD/svg11.dtd"><svg t="1684915692651" class="icon" viewBox="0 0 1171 1024" version="1.1" xmlns="http://www.w3.org/2000/svg" p-id="5896" width="36.59375" height="32" xmlns:xlink="http://www.w3.org/1999/xlink"><path d="M710.409907 69.74613c31.702786 0 57.065015 25.362229 57.065016 57.065016s-25.362229 57.065015-57.065016 57.065015H440.936223c-31.702786 0-57.065015-25.362229-57.065016-57.065015S409.233437 69.74613 440.936223 69.74613h269.473684m0-63.405573H440.936223C374.360372 6.340557 320.465635 60.235294 320.465635 126.811146s53.894737 120.470588 120.470588 120.470588h269.473684c66.575851 0 120.470588-53.894737 120.470588-120.470588S773.81548 6.340557 710.409907 6.340557zM719.920743 459.690402c31.702786 0 57.065015 25.362229 57.065016 57.065016s-25.362229 57.065015-57.065016 57.065015h-269.473684c-31.702786 0-57.065015-25.362229-57.065016-57.065015s25.362229-57.065015 57.065016-57.065016h269.473684m0-63.405572h-269.473684c-66.575851 0-120.470588 53.894737-120.470588 120.470588s53.894737 120.470588 120.470588 120.470588h269.473684c66.575851 0 120.470588-53.894737 120.470588-120.470588s-53.894737-120.470588-120.470588-120.470588zM710.409907 846.464396c31.702786 0 57.065015 25.362229 57.065016 57.065016s-25.362229 57.065015-57.065016 57.065015H440.936223c-31.702786 0-57.065015-25.362229-57.065016-57.065015s25.362229-57.065015 57.065016-57.065016h269.473684m0-63.405572H440.936223c-66.575851 0-120.470588 53.894737-120.470588 120.470588s53.894737 120.470588 120.470588 120.470588h269.473684c66.575851 0 120.470588-53.894737 120.470588-120.470588s-57.065015-120.470588-120.470588-120.470588zM314.125077 507.244582l-114.130031-63.405573c-3.170279-3.170279-9.510836 0-9.510835 6.340558v25.362229c-47.55418-15.851393-126.811146-60.235294-126.811146-161.684211 0-142.662539 155.343653-168.024768 161.684211-171.195046 15.851393-3.170279 28.532508-19.021672 25.362229-38.043344 0-19.021672-15.851393-31.702786-31.702787-28.532508-76.086687 9.510836-218.749226 76.086687-218.749226 234.60062 0 142.662539 114.130031 209.23839 190.216719 231.43034v38.043344c0 6.340557 6.340557 6.340557 9.510835 6.340557L314.125077 519.925697c6.340557-3.170279 6.340557-9.510836 0-12.681115zM843.56161 906.69969l114.130031-66.575851c3.170279-3.170279 9.510836 0 9.510836 6.340557v25.362229c47.55418-15.851393 126.811146-60.235294 126.811145-161.68421 0-142.662539-155.343653-168.024768-161.68421-171.195047-15.851393-3.170279-28.532508-19.021672-25.362229-38.043343 3.170279-19.021672 19.021672-31.702786 34.873065-28.532508 76.086687 12.681115 218.749226 76.086687 218.749226 237.770898 0 142.662539-114.130031 209.23839-190.216719 231.43034v38.043344c0 6.340557-6.340557 6.340557-9.510835 6.340557L843.56161 919.380805c-3.170279-3.170279-3.170279-9.510836 0-12.681115z" fill="#ffffff" p-id="5897"></path></svg>