<?xml version="1.0" standalone="no"?><!DOCTYPE svg PUBLIC "-//W3C//DTD SVG 1.1//EN" "http://www.w3.org/Graphics/SVG/1.1/DTD/svg11.dtd"><svg t="1681914466669" class="icon" viewBox="0 0 1024 1024" version="1.1" xmlns="http://www.w3.org/2000/svg" p-id="18889" xmlns:xlink="http://www.w3.org/1999/xlink" width="30" height="30"><path d="M874.6 0 85.4 0c-47.2 0-85.4 38.2-85.4 85.4l0 85.2c0 47.2 38.2 85.4 85.4 85.4l789.2 0c47.2 0 85.4-38.2 85.4-85.4l0-85.2C960 38.2 921.8 0 874.6 0zM896 170.6c0 11.8-9.6 21.4-21.4 21.4L85.4 192c-11.8 0-21.4-9.6-21.4-21.4l0-85.2c0-11.8 9.6-21.4 21.4-21.4l789.2 0c11.8 0 21.4 9.6 21.4 21.4L896 170.6z" p-id="18890" fill="#ffffff"></path><path d="M870 320 90 320c-49.7 0-90 40.3-90 90l0 140c0 49.7 40.3 90 90 90l780 0c49.7 0 90-40.3 90-90l0-140C960 360.3 919.7 320 870 320zM896 550c0 14.3-11.7 26-26 26L90 576c-14.3 0-26-11.7-26-26l0-140c0-14.3 11.7-26 26-26l780 0c14.3 0 26 11.7 26 26L896 550z" p-id="18891" fill="#ffffff"></path><path d="M870 704 90 704c-49.7 0-90 40.3-90 90l0 140c0 49.7 40.3 90 90 90l780 0c49.7 0 90-40.3 90-90l0-140C960 744.3 919.7 704 870 704zM896 934c0 14.3-11.7 26-26 26L90 960c-14.3 0-26-11.7-26-26l0-140c0-14.3 11.7-26 26-26l780 0c14.3 0 26 11.7 26 26L896 934z" p-id="18892" fill="#ffffff"></path><path d="M192 480m-64 0a64 64 0 1 0 128 0 64 64 0 1 0-128 0Z" p-id="18893" fill="#ffffff"></path><path d="M192 864m-64 0a64 64 0 1 0 128 0 64 64 0 1 0-128 0Z" p-id="18894" fill="#ffffff"></path></svg>