<?xml version="1.0" standalone="no"?><!DOCTYPE svg PUBLIC "-//W3C//DTD SVG 1.1//EN" "http://www.w3.org/Graphics/SVG/1.1/DTD/svg11.dtd"><svg t="1685084410262" class="icon" viewBox="0 0 1024 1024" version="1.1" xmlns="http://www.w3.org/2000/svg" p-id="3182" xmlns:xlink="http://www.w3.org/1999/xlink" width="32" height="32"><path d="M846.769231 803.446154a15.753846 15.753846 0 0 1 3.150769 31.192615l-3.150769 0.315077h-669.538462a15.753846 15.753846 0 0 1-3.150769-31.192615l3.150769-0.315077h669.538462z m0-118.153846a15.753846 15.753846 0 0 1 3.150769 31.192615l-3.150769 0.315077h-669.538462a15.753846 15.753846 0 0 1-3.150769-31.192615l3.150769-0.315077h669.538462z m0-118.153846a15.753846 15.753846 0 0 1 3.150769 31.192615l-3.150769 0.315077h-236.307693a15.753846 15.753846 0 0 1-3.150769-31.192616l3.150769-0.315076h236.307693z m-315.076923-374.153847a15.753846 15.753846 0 0 1 15.438769 12.603077l0.315077 3.15077v78.76923a15.753846 15.753846 0 0 1-31.192616 3.15077L515.938462 287.507692V224.492308H389.868308v342.646154H452.923077a15.753846 15.753846 0 0 1 3.150769 31.192615l-3.150769 0.315077h-157.538462a15.753846 15.753846 0 0 1-3.150769-31.192616l3.150769-0.315076h63.015385V224.492308H232.369231v62.700307a15.753846 15.753846 0 0 1-12.603077 15.399385l-3.150769 0.354462a15.753846 15.753846 0 0 1-15.43877-12.603077l-0.315077-3.15077V208.738462a15.753846 15.753846 0 0 1 12.603077-15.43877L216.615385 192.984615h315.076923z" fill="#ffffff" p-id="3183"></path></svg>