<?xml version="1.0" standalone="no"?><!DOCTYPE svg PUBLIC "-//W3C//DTD SVG 1.1//EN" "http://www.w3.org/Graphics/SVG/1.1/DTD/svg11.dtd"><svg t="1684916242358" class="icon" viewBox="0 0 1024 1024" version="1.1" xmlns="http://www.w3.org/2000/svg" p-id="6985" xmlns:xlink="http://www.w3.org/1999/xlink" width="32" height="32"><path d="M848 64c34.816 0 62.976 28.16 62.976 62.976v588.544a64 64 0 0 1-33.472 56.256l-334.976 181.568a64 64 0 0 1-61.056 0L146.56 771.84a64 64 0 0 1-33.472-56.32V127.04c0-34.752 28.16-62.976 62.976-62.976h672z m-61.888 105.664H237.952a16 16 0 0 0-15.552 12.352l-0.448 3.648V684.8a16 16 0 0 0 4.8 11.328l3.392 2.56 274.048 154.688a16 16 0 0 0 11.904 1.536l3.84-1.536 274.048-154.688a16 16 0 0 0 7.552-9.664l0.576-4.224V185.6a16 16 0 0 0-16-16zM609.536 254.976a16 16 0 0 1 14.336 23.168l-65.472 131.2h111.232a16 16 0 0 1 12.864 25.408L477.44 714.24a16 16 0 0 1-12.928 6.528h-44.288a16 16 0 0 1-14.72-22.4l76.8-174.72H347.776a16 16 0 0 1-14.336-23.04l116.48-236.672a16 16 0 0 1 14.336-8.96h145.344z" fill="#ffffff" p-id="6986"></path></svg>